<?xml version="1.0" encoding="utf-8"?>
<!-- Generator: Adobe Illustrator 15.1.0, SVG Export Plug-In . SVG Version: 6.00 Build 0)  -->
<!DOCTYPE svg PUBLIC "-//W3C//DTD SVG 1.1//EN" "http://www.w3.org/Graphics/SVG/1.1/DTD/svg11.dtd">
<svg version="1.1" id="Capa_1" xmlns="http://www.w3.org/2000/svg" xmlns:xlink="http://www.w3.org/1999/xlink" x="0px" y="0px"
	 width="32px" height="32px" viewBox="0 0 32 32" enable-background="new 0 0 32 32" xml:space="preserve">
<rect fill="#E33E45" width="32" height="32"/>
<g>
	<path fill="#FFFFFF" d="M23,12.071c-0.393-0.072-0.766,0.188-0.838,0.58L20.17,23.706h-8.391L9.785,12.651
		c-0.07-0.393-0.457-0.652-0.839-0.58c-0.391,0.072-0.65,0.445-0.582,0.84l2.102,11.645c0.063,0.346,0.359,0.592,0.711,0.592h9.596
		c0.35,0,0.648-0.246,0.711-0.592l2.104-11.645C23.654,12.517,23.393,12.144,23,12.071z"/>
	<path fill="#FFFFFF" d="M23.133,9.735H8.865c-0.396,0-0.721,0.324-0.721,0.723c0,0.396,0.324,0.721,0.721,0.721h14.268
		c0.4,0,0.723-0.324,0.723-0.721C23.855,10.06,23.533,9.735,23.133,9.735z"/>
	<path fill="#FFFFFF" d="M15.19,8.671h1.624c0.397,0,0.721-0.322,0.721-0.721s-0.324-0.721-0.721-0.721H15.19
		c-0.398,0-0.723,0.322-0.723,0.721S14.792,8.671,15.19,8.671z"/>
</g>
</svg>
