<?xml version="1.0" encoding="utf-8"?>
<!-- Generator: Adobe Illustrator 15.1.0, SVG Export Plug-In . SVG Version: 6.00 Build 0)  -->
<!DOCTYPE svg PUBLIC "-//W3C//DTD SVG 1.1//EN" "http://www.w3.org/Graphics/SVG/1.1/DTD/svg11.dtd">
<svg version="1.1" id="Capa_1" xmlns="http://www.w3.org/2000/svg" xmlns:xlink="http://www.w3.org/1999/xlink" x="0px" y="0px"
	 width="32px" height="32px" viewBox="0 0 32 32" enable-background="new 0 0 32 32" xml:space="preserve">
<rect x="0" y="0" fill="#18D99C" width="32" height="32"/>
<g>
	<path fill="#FFFFFF" d="M7.32,25.443c0.142,0,0.292-0.033,0.447-0.102l4.333-1.924c0.375-0.168,0.872-0.512,1.162-0.799
		l11.835-11.835c0.228-0.229,0.354-0.529,0.354-0.856c0-0.322-0.127-0.629-0.354-0.852l-2.169-2.167
		c-0.229-0.229-0.531-0.354-0.854-0.354c-0.319,0-0.626,0.125-0.852,0.354L9.084,19.045c-0.293,0.293-0.63,0.799-0.789,1.182
		l-1.654,4.018c-0.182,0.438-0.055,0.73,0.04,0.869C6.821,25.322,7.052,25.443,7.32,25.443z M12.406,21.76L12.406,21.76
		l-2.167-2.164L20.262,9.575l2.167,2.165L12.406,21.76z M22.073,7.76l2.167,2.167l-0.958,0.961l-2.167-2.169L22.073,7.76z
		 M9.411,20.686c0.019-0.039,0.043-0.09,0.07-0.141l1.877,1.879l-3.256,1.443L9.411,20.686z"/>
</g>
</svg>
