<?xml version="1.0" encoding="utf-8"?>
<!-- Generator: Adobe Illustrator 15.1.0, SVG Export Plug-In . SVG Version: 6.00 Build 0)  -->
<!DOCTYPE svg PUBLIC "-//W3C//DTD SVG 1.1//EN" "http://www.w3.org/Graphics/SVG/1.1/DTD/svg11.dtd">
<svg version="1.1" id="Capa_1" xmlns="http://www.w3.org/2000/svg" xmlns:xlink="http://www.w3.org/1999/xlink" x="0px" y="0px"
	 width="38px" height="38px" viewBox="0 0 38 38" enable-background="new 0 0 38 38" xml:space="preserve">
<g>
	<path fill="#FFFFFF" d="M18.438,19.664c0.18,0.174,0.406,0.26,0.635,0.26c0.236,0,0.473-0.092,0.648-0.273l6.166-6.311
		c0.352-0.363,0.344-0.934-0.014-1.283c-0.359-0.354-0.932-0.342-1.283,0.012l-5.533,5.663l-5.66-5.53
		c-0.361-0.35-0.932-0.338-1.285,0.018c-0.352,0.357-0.342,0.932,0.014,1.281L18.438,19.664z"/>
	<path fill="#FFFFFF" d="M28.9,19.561c-0.5,0-0.906,0.406-0.906,0.908v4.455h-8.965h-9.025v-4.455c0-0.502-0.404-0.908-0.906-0.908
		S8.19,19.967,8.19,20.469v5.365c0,0.502,0.406,0.906,0.908,0.906h9.931H28.9c0.504,0,0.908-0.404,0.908-0.906v-5.365
		C29.809,19.967,29.404,19.561,28.9,19.561z"/>
</g>
</svg>
