<?xml version="1.0" encoding="utf-8"?>
<!-- Generator: Adobe Illustrator 15.1.0, SVG Export Plug-In . SVG Version: 6.00 Build 0)  -->
<!DOCTYPE svg PUBLIC "-//W3C//DTD SVG 1.1//EN" "http://www.w3.org/Graphics/SVG/1.1/DTD/svg11.dtd">
<svg version="1.1" id="Capa_1" xmlns="http://www.w3.org/2000/svg" xmlns:xlink="http://www.w3.org/1999/xlink" x="0px" y="0px"
	 width="38px" height="38px" viewBox="0 0 38 38" enable-background="new 0 0 38 38" xml:space="preserve">
<path fill-rule="evenodd" clip-rule="evenodd" fill="#FFFFFF" d="M24.543,22.563c-0.699,0-1.332,0.289-1.789,0.754l-6.855-3.741
	c0.043-0.18,0.07-0.367,0.07-0.563c0-0.193-0.027-0.377-0.07-0.557l6.838-3.731c0.457,0.477,1.098,0.768,1.807,0.768
	c1.404,0,2.535-1.133,2.535-2.532c0-1.402-1.131-2.537-2.535-2.537c-1.396,0-2.531,1.135-2.531,2.537
	c0,0.193,0.023,0.381,0.064,0.563l-6.83,3.727c-0.459-0.471-1.096-0.758-1.801-0.758c-1.395,0-2.523,1.127-2.523,2.52
	c0,1.395,1.129,2.528,2.523,2.528c0.705,0,1.342-0.293,1.801-0.764l6.854,3.738c-0.037,0.18-0.064,0.363-0.064,0.557
	c0,1.385,1.123,2.504,2.508,2.504c1.389,0,2.508-1.119,2.508-2.504S25.932,22.563,24.543,22.563"/>
</svg>
