<?xml version="1.0" encoding="utf-8"?>
<!-- Generator: Adobe Illustrator 15.1.0, SVG Export Plug-In . SVG Version: 6.00 Build 0)  -->
<!DOCTYPE svg PUBLIC "-//W3C//DTD SVG 1.1//EN" "http://www.w3.org/Graphics/SVG/1.1/DTD/svg11.dtd">
<svg version="1.1" id="Capa_1" xmlns="http://www.w3.org/2000/svg" xmlns:xlink="http://www.w3.org/1999/xlink" x="0px" y="0px"
	 width="32px" height="32px" viewBox="0 0 32 32" enable-background="new 0 0 32 32" xml:space="preserve">
<rect x="0" fill="#FFD65E" width="32" height="32"/>
<g>
	<path fill="#FFFFFF" d="M23.01,13.404l-4.059-0.59l-1.814-3.678c-0.213-0.43-0.652-0.703-1.133-0.703
		c-0.486,0-0.924,0.273-1.139,0.703l-1.813,3.678l-4.057,0.59c-0.477,0.066-0.873,0.404-1.025,0.859
		c-0.146,0.457-0.021,0.963,0.324,1.299l2.934,2.859l-0.691,4.043c-0.082,0.473,0.113,0.953,0.504,1.236
		c0.223,0.164,0.482,0.242,0.744,0.242c0.201,0,0.402-0.047,0.588-0.146l3.631-1.906l3.627,1.906c0.184,0.1,0.387,0.146,0.588,0.146
		c0.264,0,0.521-0.078,0.744-0.242c0.391-0.283,0.586-0.764,0.504-1.236l-0.695-4.043l2.939-2.859
		c0.346-0.336,0.467-0.842,0.318-1.299C23.881,13.809,23.484,13.471,23.01,13.404z M19.414,17.98l0.805,4.699l-4.215-2.219
		l-4.219,2.219l0.807-4.699l-3.414-3.326l4.717-0.684l2.11-4.273l2.104,4.273l4.721,0.684L19.414,17.98z"/>
</g>
</svg>
