<?xml version="1.0" encoding="utf-8"?>
<!-- Generator: Adobe Illustrator 15.1.0, SVG Export Plug-In . SVG Version: 6.00 Build 0)  -->
<!DOCTYPE svg PUBLIC "-//W3C//DTD SVG 1.1//EN" "http://www.w3.org/Graphics/SVG/1.1/DTD/svg11.dtd">
<svg version="1.1" id="Capa_1" xmlns="http://www.w3.org/2000/svg" xmlns:xlink="http://www.w3.org/1999/xlink" x="0px" y="0px"
	 width="51px" height="51px" viewBox="0 0 51 51" enable-background="new 0 0 51 51" xml:space="preserve">
<path fill="#FFFFFF" d="M29.335,14.961H18.536c-1.182-0.016-1.773,0.576-1.773,1.775v17.527c0,1.184,0.592,1.775,1.773,1.775h13.947
	c1.182,0,1.773-0.592,1.773-1.775V20.059L29.335,14.961z M31.513,34.574H19.507c-1.02,0-1.529-0.51-1.529-1.529V17.956
	c0-1.033,0.51-1.541,1.529-1.529h9.297v2.715c-0.016,1.115,0.543,1.676,1.676,1.676h2.561v12.228
	C33.04,34.064,32.53,34.574,31.513,34.574z"/>
</svg>
