<?xml version="1.0" encoding="utf-8"?>
<!-- Generator: Adobe Illustrator 15.1.0, SVG Export Plug-In . SVG Version: 6.00 Build 0)  -->
<!DOCTYPE svg PUBLIC "-//W3C//DTD SVG 1.1//EN" "http://www.w3.org/Graphics/SVG/1.1/DTD/svg11.dtd">
<svg version="1.1" id="Capa_1" xmlns="http://www.w3.org/2000/svg" xmlns:xlink="http://www.w3.org/1999/xlink" x="0px" y="0px"
	 width="51px" height="51px" viewBox="0 0 51 51" enable-background="new 0 0 51 51" xml:space="preserve">
<path fill="#FFFFFF" d="M35.221,26.091l-4.629-8.926c-0.111-0.217-0.336-0.354-0.582-0.354h-8.936c-0.242,0-0.467,0.137-0.582,0.354
	l-4.314,8.32c-0.105,0.174-0.205,0.336-0.273,0.529l-0.041,0.076c-0.033,0.064-0.006,0.137-0.016,0.205
	c-0.059,0.227-0.141,0.447-0.141,0.693v4.246c0,1.629,1.326,2.953,2.955,2.953h13.68c1.627,0,2.951-1.324,2.951-2.953v-4.246
	c0-0.129-0.055-0.232-0.07-0.354C35.299,26.466,35.314,26.269,35.221,26.091z M21.475,18.122h8.137l3.104,5.986
	c-0.129-0.014-0.24-0.07-0.373-0.07h-3.039c-0.346,0-0.631,0.266-0.652,0.613c-0.105,1.666-1.488,2.973-3.15,2.973
	c-1.66,0-3.043-1.307-3.15-2.973c-0.021-0.348-0.309-0.613-0.654-0.613h-3.033c-0.1,0-0.186,0.045-0.279,0.053L21.475,18.122z
	 M33.982,31.235c0,0.906-0.736,1.641-1.641,1.641h-13.68c-0.904,0-1.643-0.734-1.643-1.641v-4.246c0-0.16,0.049-0.301,0.092-0.445
	l0.303-0.586c0.299-0.363,0.738-0.609,1.248-0.609h2.459c0.418,2.055,2.236,3.588,4.379,3.588s3.961-1.533,4.379-3.588h2.463
	c0.904,0,1.641,0.734,1.641,1.641V31.235z"/>
</svg>
