<?xml version="1.0" encoding="utf-8"?>
<!-- Generator: Adobe Illustrator 15.1.0, SVG Export Plug-In . SVG Version: 6.00 Build 0)  -->
<!DOCTYPE svg PUBLIC "-//W3C//DTD SVG 1.1//EN" "http://www.w3.org/Graphics/SVG/1.1/DTD/svg11.dtd">
<svg version="1.1" id="Capa_1" xmlns="http://www.w3.org/2000/svg" xmlns:xlink="http://www.w3.org/1999/xlink" x="0px" y="0px"
	 width="51px" height="51px" viewBox="0 0 51 51" enable-background="new 0 0 51 51" xml:space="preserve">
<g>
	<path fill="#FFFFFF" d="M25.498,26.734c3.258,0,5.908-2.65,5.908-5.91c0-3.254-2.65-5.904-5.908-5.904
		c-3.257,0-5.906,2.65-5.906,5.904C19.592,24.084,22.241,26.734,25.498,26.734z M25.498,16.348c2.473,0,4.482,2.008,4.482,4.477
		c0,2.475-2.01,4.484-4.482,4.484c-2.468,0-4.478-2.009-4.478-4.484C21.02,18.356,23.03,16.348,25.498,16.348z"/>
	<path fill="#FFFFFF" d="M25.498,28.934c-6.062,0-10.812,2.822-10.812,6.432c0,0.393,0.318,0.713,0.713,0.713
		c0.393,0,0.713-0.32,0.713-0.713c0-2.715,4.297-5.004,9.386-5.004c5.088,0,9.389,2.289,9.389,5.004
		c0,0.393,0.316,0.713,0.713,0.713c0.393,0,0.713-0.32,0.713-0.713C36.313,31.756,31.561,28.934,25.498,28.934z"/>
</g>
</svg>
