<?xml version="1.0" encoding="utf-8"?>
<!-- Generator: Adobe Illustrator 15.1.0, SVG Export Plug-In . SVG Version: 6.00 Build 0)  -->
<!DOCTYPE svg PUBLIC "-//W3C//DTD SVG 1.1//EN" "http://www.w3.org/Graphics/SVG/1.1/DTD/svg11.dtd">
<svg version="1.1" id="Capa_1" xmlns="http://www.w3.org/2000/svg" xmlns:xlink="http://www.w3.org/1999/xlink" x="0px" y="0px"
	 width="51px" height="51px" viewBox="0 0 51 51" enable-background="new 0 0 51 51" xml:space="preserve">
<path fill="#FFFFFF" d="M29.896,14.382c-1.084-0.457-2.223-0.688-3.389-0.688c-3.5,0-6.645,2.082-8.01,5.299
	c-0.906,2.139-0.926,4.502-0.057,6.656c0.773,1.907,2.184,3.415,3.979,4.37l-2.549,6.201c-0.164,0.402,0.027,0.863,0.43,1.027
	c0.098,0.041,0.197,0.059,0.299,0.059c0.309,0,0.602-0.182,0.729-0.486l2.543-6.189c0.852,0.273,1.727,0.455,2.627,0.455
	c3.5,0,6.645-2.084,8.01-5.307C36.38,21.367,34.308,16.257,29.896,14.382z M33.062,25.162c-1.121,2.645-3.697,4.352-6.564,4.352
	c-0.953,0-1.889-0.189-2.775-0.568c-0.004,0-0.004,0-0.004,0c-0.004-0.002-0.004-0.002-0.004-0.002h-0.002
	c-1.748-0.744-3.102-2.125-3.814-3.883c-0.711-1.764-0.693-3.701,0.049-5.451c1.115-2.639,3.691-4.344,6.561-4.344
	c0.953,0,1.887,0.191,2.775,0.57C32.896,17.367,34.593,21.554,33.062,25.162z"/>
</svg>
