<?xml version="1.0" encoding="utf-8"?>
<!-- Generator: Adobe Illustrator 15.1.0, SVG Export Plug-In . SVG Version: 6.00 Build 0)  -->
<!DOCTYPE svg PUBLIC "-//W3C//DTD SVG 1.1//EN" "http://www.w3.org/Graphics/SVG/1.1/DTD/svg11.dtd">
<svg version="1.1" id="Capa_1" xmlns="http://www.w3.org/2000/svg" xmlns:xlink="http://www.w3.org/1999/xlink" x="0px" y="0px"
	 width="195px" height="80px" viewBox="0 0 195 80" enable-background="new 0 0 195 80" xml:space="preserve">
<g>
	<g>
		<path fill="#2C3E50" d="M24.892,47.728c-3.094,0-6.002-0.557-8.724-1.671c-2.723-1.113-5.084-2.67-7.085-4.671
			c-2.001-2.001-3.589-4.372-4.764-7.116c-1.176-2.742-1.764-5.723-1.764-8.94v-0.124c0-3.134,0.578-6.073,1.733-8.817
			c1.154-2.742,2.743-5.135,4.764-7.177s4.424-3.641,7.209-4.796c2.784-1.154,5.826-1.732,9.126-1.732
			c2.228,0,4.248,0.217,6.064,0.649c1.815,0.434,3.475,1.053,4.981,1.856c1.505,0.805,2.867,1.764,4.084,2.878
			c1.216,1.113,2.299,2.33,3.248,3.65l-9.034,6.991c-1.237-1.566-2.599-2.805-4.083-3.712c-1.485-0.907-3.279-1.361-5.384-1.361
			c-1.526,0-2.918,0.3-4.176,0.897c-1.259,0.598-2.342,1.413-3.249,2.443c-0.908,1.032-1.62,2.249-2.135,3.651
			c-0.516,1.402-0.774,2.888-0.774,4.454v0.124c0,1.608,0.258,3.125,0.774,4.548c0.515,1.423,1.227,2.651,2.135,3.682
			c0.907,1.031,1.99,1.847,3.249,2.444c1.258,0.598,2.65,0.896,4.176,0.896c1.114,0,2.135-0.123,3.063-0.371
			c0.928-0.247,1.773-0.607,2.537-1.083c0.763-0.474,1.485-1.03,2.165-1.67c0.681-0.64,1.351-1.351,2.011-2.135l9.034,6.435
			c-1.032,1.403-2.156,2.702-3.372,3.898c-1.218,1.196-2.599,2.228-4.146,3.094s-3.279,1.547-5.198,2.042
			C29.439,47.48,27.284,47.728,24.892,47.728z"/>
		<path fill="#2C3E50" d="M49.208,3.549h12.004V19.76h15.407V3.549h12.003v43.313H76.619V30.402H61.212v16.459H49.208V3.549z"/>
		<path fill="#2C3E50" d="M96.541,3.549h12.066v43.313H96.541V3.549z"/>
		<path fill="#2C3E50" d="M133.543,47.604c-3.879,0-7.561-0.602-11.045-1.805c-3.486-1.204-6.57-3.01-9.25-5.417l6.682-7.999
			c4.332,3.465,9.012,5.197,14.045,5.197c1.609,0,2.836-0.257,3.682-0.771s1.27-1.246,1.27-2.193v-0.123
			c0-0.452-0.104-0.854-0.311-1.205c-0.207-0.35-0.588-0.688-1.145-1.019c-0.557-0.329-1.299-0.647-2.227-0.957
			s-2.135-0.629-3.619-0.958c-2.311-0.535-4.455-1.122-6.436-1.76s-3.703-1.462-5.166-2.471c-1.465-1.009-2.621-2.265-3.465-3.768
			c-0.848-1.503-1.27-3.367-1.27-5.591v-0.122c0-2.018,0.381-3.871,1.145-5.56c0.764-1.688,1.877-3.149,3.342-4.385
			c1.463-1.236,3.227-2.193,5.289-2.873c2.063-0.679,4.395-1.019,6.992-1.019c3.713,0,7.023,0.488,9.932,1.464
			s5.537,2.418,7.889,4.326l-6.002,8.503c-1.98-1.401-4.012-2.464-6.094-3.187c-2.084-0.722-4.096-1.083-6.033-1.083
			c-1.445,0-2.527,0.268-3.248,0.804c-0.723,0.535-1.084,1.194-1.084,1.976v0.124c0,0.494,0.113,0.927,0.342,1.297
			c0.225,0.371,0.617,0.71,1.176,1.02c0.557,0.31,1.318,0.618,2.289,0.927c0.969,0.309,2.195,0.628,3.682,0.957
			c2.475,0.535,4.711,1.163,6.713,1.883c2,0.722,3.701,1.597,5.104,2.626s2.477,2.274,3.219,3.736s1.113,3.202,1.113,5.219v0.124
			c0,2.224-0.424,4.201-1.268,5.93c-0.848,1.729-2.033,3.202-3.559,4.416c-1.527,1.215-3.363,2.142-5.508,2.779
			C138.574,47.285,136.182,47.604,133.543,47.604z"/>
		<path fill="#2C3E50" d="M167.449,14.067h-12.994V3.549h37.992v10.519h-12.994v32.794h-12.004V14.067z"/>
	</g>
</g>
<g>
	<g>
		<path fill="#2C3E50" d="M28.519,76.123c-1.06,0-2.027-0.174-2.904-0.521s-1.712-0.88-2.506-1.599l0.927-1.097
			c0.693,0.63,1.394,1.1,2.1,1.409c0.707,0.309,1.52,0.463,2.44,0.463c0.896,0,1.611-0.211,2.147-0.634
			c0.536-0.422,0.804-0.961,0.804-1.617V72.49c0-0.303-0.05-0.576-0.151-0.822c-0.102-0.246-0.278-0.47-0.531-0.672
			c-0.253-0.201-0.604-0.385-1.052-0.549c-0.449-0.163-1.021-0.321-1.716-0.473c-0.759-0.164-1.419-0.353-1.981-0.567
			c-0.563-0.215-1.027-0.473-1.394-0.775s-0.639-0.656-0.816-1.06c-0.176-0.403-0.265-0.877-0.265-1.419v-0.038
			c0-0.517,0.107-0.996,0.321-1.438s0.517-0.823,0.908-1.145c0.391-0.321,0.852-0.574,1.381-0.757s1.11-0.274,1.74-0.274
			c0.971,0,1.819,0.136,2.545,0.407c0.725,0.271,1.428,0.678,2.109,1.22l-0.871,1.154c-0.618-0.505-1.239-0.87-1.863-1.098
			c-0.625-0.227-1.277-0.34-1.958-0.34c-0.87,0-1.558,0.205-2.062,0.614c-0.504,0.41-0.757,0.918-0.757,1.523v0.037
			c0,0.315,0.05,0.597,0.151,0.842c0.101,0.246,0.284,0.474,0.549,0.682s0.63,0.397,1.097,0.567c0.466,0.17,1.065,0.331,1.797,0.482
			c1.476,0.328,2.563,0.782,3.263,1.362c0.7,0.58,1.05,1.374,1.05,2.383v0.038c0,0.567-0.112,1.082-0.336,1.542
			c-0.224,0.461-0.533,0.854-0.927,1.183c-0.394,0.328-0.868,0.58-1.423,0.757C29.78,76.034,29.175,76.123,28.519,76.123z"/>
		<path fill="#2C3E50" d="M35.821,62.124h1.457v5.731c0.328-0.529,0.757-0.98,1.286-1.353c0.53-0.371,1.217-0.558,2.063-0.558
			c0.593,0,1.119,0.095,1.58,0.283c0.46,0.189,0.851,0.458,1.173,0.805s0.567,0.76,0.738,1.239c0.17,0.479,0.255,1.009,0.255,1.589
			v6.072h-1.457v-5.7c0-0.906-0.234-1.624-0.7-2.152c-0.467-0.528-1.135-0.793-2.005-0.793c-0.416,0-0.804,0.072-1.164,0.218
			c-0.359,0.145-0.671,0.352-0.936,0.622c-0.265,0.271-0.47,0.595-0.615,0.973c-0.146,0.377-0.218,0.793-0.218,1.245v5.588h-1.457
			V62.124z"/>
		<path fill="#2C3E50" d="M50.387,76.142c-0.454,0-0.901-0.063-1.343-0.189s-0.832-0.318-1.173-0.576
			c-0.34-0.259-0.615-0.577-0.823-0.956c-0.208-0.378-0.312-0.819-0.312-1.324v-0.037c0-0.53,0.101-0.993,0.302-1.391
			s0.489-0.729,0.861-0.993s0.813-0.467,1.324-0.605s1.075-0.208,1.693-0.208c0.63,0,1.176,0.037,1.636,0.113
			c0.461,0.075,0.912,0.177,1.353,0.303v-0.301c0-0.864-0.252-1.52-0.757-1.964c-0.504-0.445-1.217-0.668-2.138-0.668
			c-0.58,0-1.106,0.063-1.579,0.189c-0.473,0.126-0.937,0.297-1.39,0.511l-0.435-1.199c0.542-0.255,1.091-0.46,1.646-0.613
			s1.192-0.23,1.911-0.23c1.387,0,2.44,0.359,3.16,1.078c0.681,0.681,1.021,1.64,1.021,2.876v5.978h-1.438v-1.457
			c-0.34,0.442-0.798,0.83-1.372,1.164C51.96,75.975,51.245,76.142,50.387,76.142z M50.682,74.95c0.452,0,0.874-0.063,1.263-0.188
			c0.39-0.125,0.732-0.305,1.028-0.536c0.295-0.232,0.528-0.509,0.697-0.829c0.17-0.319,0.255-0.675,0.255-1.063v-0.904
			c-0.365-0.1-0.779-0.193-1.245-0.282c-0.465-0.087-1-0.132-1.603-0.132c-0.905,0-1.606,0.18-2.103,0.537s-0.745,0.832-0.745,1.421
			v0.038c0,0.302,0.066,0.574,0.198,0.819c0.132,0.244,0.311,0.448,0.537,0.611c0.226,0.163,0.487,0.289,0.783,0.377
			C50.044,74.906,50.355,74.95,50.682,74.95z"/>
		<path fill="#2C3E50" d="M58.427,66.153h1.457v2.554c0.176-0.403,0.397-0.775,0.662-1.116c0.265-0.341,0.567-0.634,0.908-0.88
			c0.341-0.245,0.712-0.432,1.116-0.558s0.838-0.183,1.305-0.17v1.569h-0.113c-0.53,0-1.031,0.095-1.504,0.284
			c-0.473,0.189-0.886,0.473-1.239,0.852c-0.353,0.378-0.631,0.848-0.832,1.409c-0.202,0.562-0.303,1.208-0.303,1.938v3.897h-1.457
			V66.153z"/>
		<path fill="#2C3E50" d="M66.959,71.64c0.05,0.517,0.176,0.978,0.378,1.381c0.202,0.403,0.46,0.744,0.776,1.021
			c0.315,0.277,0.668,0.488,1.059,0.634c0.391,0.145,0.801,0.218,1.23,0.218c0.681,0,1.264-0.126,1.75-0.379
			c0.485-0.252,0.93-0.586,1.334-1.003l0.908,0.813c-0.492,0.556-1.053,1-1.684,1.334c-0.631,0.334-1.413,0.501-2.346,0.501
			c-0.668,0-1.299-0.122-1.892-0.368c-0.593-0.246-1.11-0.593-1.551-1.041c-0.441-0.447-0.792-0.986-1.05-1.617
			c-0.259-0.631-0.388-1.324-0.388-2.081c0-0.706,0.116-1.371,0.35-1.996c0.233-0.624,0.558-1.166,0.975-1.627
			c0.416-0.46,0.911-0.822,1.485-1.087c0.574-0.266,1.201-0.397,1.882-0.397c0.719,0,1.362,0.136,1.93,0.406
			c0.567,0.271,1.046,0.641,1.438,1.107c0.391,0.466,0.688,1.015,0.889,1.646s0.303,1.306,0.303,2.024c0,0.063,0,0.136,0,0.217
			c0,0.083-0.006,0.18-0.019,0.294H66.959z M73.259,70.447c-0.038-0.438-0.132-0.855-0.284-1.25
			c-0.151-0.396-0.356-0.743-0.615-1.044c-0.259-0.302-0.574-0.54-0.946-0.715c-0.372-0.176-0.798-0.264-1.277-0.264
			c-0.416,0-0.807,0.082-1.173,0.244c-0.366,0.163-0.688,0.393-0.965,0.687c-0.277,0.295-0.508,0.643-0.69,1.044
			c-0.183,0.402-0.3,0.834-0.35,1.298H73.259z"/>
		<path fill="#2C3E50" d="M82.131,66.153h1.551l2.573,7.851l2.629-7.889h1.211l2.649,7.889l2.572-7.851h1.514l-3.443,9.855h-1.268
			l-2.629-7.718l-2.648,7.718h-1.287L82.131,66.153z"/>
		<path fill="#2C3E50" d="M99.289,62.407h1.664v1.608h-1.664V62.407z M99.383,66.153h1.457v9.78h-1.457V66.153z"/>
		<path fill="#2C3E50" d="M107.498,76.104c-0.391,0-0.756-0.05-1.096-0.151c-0.342-0.101-0.635-0.262-0.881-0.482
			c-0.246-0.22-0.438-0.507-0.576-0.86c-0.139-0.353-0.209-0.775-0.209-1.268v-5.902h-1.361v-1.286h1.361v-2.951h1.457v2.951h3.104
			v1.286h-3.104v5.698c0,0.604,0.15,1.025,0.455,1.265c0.303,0.239,0.699,0.358,1.191,0.358c0.252,0,0.488-0.023,0.709-0.071
			s0.457-0.131,0.709-0.25v1.248c-0.252,0.139-0.52,0.243-0.803,0.313C108.17,76.069,107.852,76.104,107.498,76.104z"/>
		<path fill="#2C3E50" d="M111.869,62.124h1.457v5.731c0.326-0.529,0.756-0.98,1.285-1.353c0.529-0.371,1.217-0.558,2.063-0.558
			c0.592,0,1.119,0.095,1.58,0.283c0.459,0.189,0.852,0.458,1.172,0.805c0.322,0.347,0.568,0.76,0.738,1.239
			c0.17,0.479,0.256,1.009,0.256,1.589v6.072h-1.457v-5.7c0-0.906-0.234-1.624-0.701-2.152c-0.465-0.528-1.135-0.793-2.004-0.793
			c-0.416,0-0.805,0.072-1.164,0.218c-0.359,0.145-0.672,0.352-0.936,0.622c-0.266,0.271-0.471,0.595-0.615,0.973
			c-0.145,0.377-0.217,0.793-0.217,1.245v5.588h-1.457V62.124z"/>
		<path fill="#2C3E50" d="M132.432,76.123c-0.707,0-1.42-0.13-2.137-0.388c-0.719-0.259-1.357-0.608-1.912-1.051l0.738-1.04
			c0.529,0.404,1.082,0.713,1.656,0.927c0.572,0.215,1.15,0.322,1.73,0.322c0.592,0,1.078-0.139,1.457-0.417
			c0.377-0.277,0.566-0.655,0.566-1.135v-0.038c0-0.239-0.066-0.447-0.199-0.624c-0.131-0.177-0.311-0.331-0.539-0.464
			c-0.227-0.132-0.488-0.248-0.785-0.35c-0.295-0.101-0.602-0.195-0.916-0.283c-0.379-0.114-0.76-0.237-1.145-0.369
			c-0.385-0.133-0.732-0.3-1.041-0.502c-0.309-0.201-0.563-0.453-0.758-0.756s-0.293-0.682-0.293-1.136v-0.037
			c0-0.417,0.082-0.798,0.246-1.145s0.395-0.644,0.691-0.89s0.648-0.435,1.059-0.567s0.855-0.198,1.334-0.198
			c0.605,0,1.217,0.098,1.836,0.293c0.617,0.195,1.178,0.457,1.684,0.785l-0.662,1.097c-0.455-0.29-0.932-0.52-1.43-0.69
			c-0.498-0.17-0.986-0.255-1.465-0.255c-0.58,0-1.041,0.136-1.381,0.406c-0.342,0.271-0.512,0.608-0.512,1.013v0.037
			c0,0.228,0.07,0.426,0.209,0.597c0.139,0.17,0.324,0.318,0.557,0.444c0.234,0.126,0.502,0.239,0.805,0.34
			c0.303,0.102,0.617,0.202,0.945,0.303c0.379,0.114,0.754,0.24,1.127,0.379c0.371,0.139,0.709,0.315,1.012,0.529
			c0.303,0.215,0.545,0.474,0.729,0.775c0.182,0.303,0.273,0.675,0.273,1.116v0.038c0,0.467-0.092,0.88-0.273,1.239
			c-0.184,0.359-0.43,0.665-0.738,0.917c-0.309,0.253-0.674,0.445-1.098,0.577C133.381,76.057,132.924,76.123,132.432,76.123z"/>
		<path fill="#2C3E50" d="M141.891,76.104c-0.391,0-0.758-0.05-1.098-0.151c-0.34-0.101-0.633-0.262-0.879-0.482
			c-0.246-0.22-0.439-0.507-0.578-0.86c-0.139-0.353-0.207-0.775-0.207-1.268v-5.902h-1.363v-1.286h1.363v-2.951h1.455v2.951h3.104
			v1.286h-3.104v5.698c0,0.604,0.152,1.025,0.455,1.265s0.699,0.358,1.191,0.358c0.252,0,0.488-0.023,0.709-0.071
			s0.457-0.131,0.709-0.25v1.248c-0.252,0.139-0.52,0.243-0.803,0.313S142.244,76.104,141.891,76.104z"/>
		<path fill="#2C3E50" d="M147.773,79.018c-0.404,0-0.77-0.042-1.098-0.123c-0.328-0.083-0.656-0.205-0.984-0.369l0.492-1.154
			c0.24,0.126,0.477,0.218,0.711,0.274c0.232,0.057,0.506,0.085,0.822,0.085c0.441,0,0.813-0.132,1.115-0.397
			c0.303-0.265,0.6-0.744,0.891-1.438l-4.447-9.742h1.609l3.557,8.153l3.139-8.153h1.553l-4.105,10.102
			c-0.416,1.009-0.881,1.722-1.391,2.138C149.125,78.809,148.504,79.018,147.773,79.018z"/>
		<path fill="#2C3E50" d="M157.572,62.124h1.457v13.81h-1.457V62.124z"/>
		<path fill="#2C3E50" d="M163.285,71.64c0.051,0.517,0.176,0.978,0.379,1.381c0.201,0.403,0.459,0.744,0.775,1.021
			c0.314,0.277,0.668,0.488,1.059,0.634c0.391,0.145,0.801,0.218,1.23,0.218c0.68,0,1.264-0.126,1.75-0.379
			c0.484-0.252,0.93-0.586,1.334-1.003l0.906,0.813c-0.49,0.556-1.053,1-1.684,1.334s-1.412,0.501-2.346,0.501
			c-0.668,0-1.299-0.122-1.891-0.368c-0.594-0.246-1.109-0.593-1.551-1.041c-0.443-0.447-0.793-0.986-1.051-1.617
			s-0.389-1.324-0.389-2.081c0-0.706,0.117-1.371,0.352-1.996c0.232-0.624,0.557-1.166,0.973-1.627
			c0.418-0.46,0.912-0.822,1.486-1.087c0.574-0.266,1.201-0.397,1.883-0.397c0.717,0,1.361,0.136,1.928,0.406
			c0.568,0.271,1.047,0.641,1.439,1.107c0.391,0.466,0.686,1.015,0.889,1.646c0.201,0.631,0.303,1.306,0.303,2.024
			c0,0.063,0,0.136,0,0.217c0,0.083-0.008,0.18-0.02,0.294H163.285z M169.584,70.447c-0.037-0.438-0.131-0.855-0.283-1.25
			c-0.152-0.396-0.355-0.743-0.615-1.044c-0.258-0.302-0.574-0.54-0.945-0.715c-0.373-0.176-0.799-0.264-1.277-0.264
			c-0.416,0-0.807,0.082-1.172,0.244c-0.367,0.163-0.688,0.393-0.965,0.687c-0.277,0.295-0.508,0.643-0.691,1.044
			c-0.184,0.402-0.299,0.834-0.35,1.298H169.584z"/>
	</g>
</g>
</svg>
