<?xml version="1.0" encoding="utf-8"?>
<!-- Generator: Adobe Illustrator 15.1.0, SVG Export Plug-In . SVG Version: 6.00 Build 0)  -->
<!DOCTYPE svg PUBLIC "-//W3C//DTD SVG 1.1//EN" "http://www.w3.org/Graphics/SVG/1.1/DTD/svg11.dtd">
<svg version="1.1" id="Capa_1" xmlns="http://www.w3.org/2000/svg" xmlns:xlink="http://www.w3.org/1999/xlink" x="0px" y="0px"
	 width="43px" height="43px" viewBox="0 0 43 43" enable-background="new 0 0 43 43" xml:space="preserve">
<g>
	<path fill="#18D99C" d="M20.752,29.559v0.875c0,0.412,0.335,0.747,0.746,0.747c0.413,0,0.748-0.335,0.748-0.747v-0.875
		c0.867-0.309,1.494-1.138,1.494-2.109c0-1.238-1.006-2.241-2.242-2.241c-1.232,0-2.24,1.003-2.24,2.241
		C19.258,28.421,19.885,29.25,20.752,29.559z M21.498,26.286c0.641,0,1.163,0.521,1.163,1.163c0,0.641-0.522,1.16-1.163,1.16
		c-0.639,0-1.162-0.52-1.162-1.16C20.336,26.808,20.859,26.286,21.498,26.286z"/>
	<path fill="#18D99C" d="M31.137,21.769h-2.109h-1.672H15.644v-5.855c0-3.229,2.626-5.857,5.854-5.857
		c3.23,0,5.857,2.628,5.857,5.857l0.005,1.679c0,0.464,0.374,0.838,0.837,0.838c0.453,0,0.817-0.36,0.83-0.811v-1.706
		c0-4.152-3.376-7.531-7.529-7.531c-4.15,0-7.528,3.379-7.528,7.531v5.855h-0.007H11.86c-0.442,0-0.802,0.36-0.802,0.804v11.244
		c0,0.444,0.36,0.803,0.802,0.803h19.276c0.443,0,0.805-0.358,0.805-0.803V22.572C31.941,22.129,31.58,21.769,31.137,21.769z
		 M30.334,33.015H12.663v-9.639h17.671V33.015z"/>
</g>
</svg>
