<?xml version="1.0" encoding="utf-8"?>
<!-- Generator: Adobe Illustrator 15.1.0, SVG Export Plug-In . SVG Version: 6.00 Build 0)  -->
<!DOCTYPE svg PUBLIC "-//W3C//DTD SVG 1.1//EN" "http://www.w3.org/Graphics/SVG/1.1/DTD/svg11.dtd">
<svg version="1.1" id="Capa_1" xmlns="http://www.w3.org/2000/svg" xmlns:xlink="http://www.w3.org/1999/xlink" x="0px" y="0px"
	 width="43px" height="43px" viewBox="0 0 43 43" enable-background="new 0 0 43 43" xml:space="preserve">
<g>
	<path fill="#E33E45" d="M20.751,29.577v0.881c0,0.413,0.335,0.747,0.748,0.747c0.414,0,0.75-0.334,0.75-0.747v-0.881
		c0.869-0.31,1.496-1.14,1.496-2.112c0-1.24-1.007-2.249-2.246-2.249c-1.238,0-2.244,1.009-2.244,2.249
		C19.255,28.438,19.88,29.268,20.751,29.577z M21.499,26.297c0.643,0,1.165,0.523,1.165,1.168c0,0.64-0.522,1.162-1.165,1.162
		c-0.642,0-1.164-0.522-1.164-1.162C20.335,26.82,20.857,26.297,21.499,26.297z"/>
	<path fill="#E33E45" d="M31.161,21.769h-0.894h-1.219v-5.87c0-4.163-3.388-7.55-7.55-7.55s-7.548,3.387-7.548,7.55v5.87h-1.667
		h-0.448c-0.444,0-0.804,0.361-0.804,0.806v11.272c0,0.442,0.36,0.805,0.804,0.805h19.325c0.445,0,0.807-0.362,0.807-0.805V22.574
		C31.968,22.13,31.606,21.769,31.161,21.769z M15.628,15.898c0-3.237,2.634-5.873,5.871-5.873s5.874,2.636,5.874,5.873v5.87h-0.237
		H15.864h-0.236V15.898z M30.356,33.041H12.643V23.38h17.714V33.041z"/>
</g>
</svg>
