<?xml version="1.0" encoding="utf-8"?>
<!-- Generator: Adobe Illustrator 15.1.0, SVG Export Plug-In . SVG Version: 6.00 Build 0)  -->
<!DOCTYPE svg PUBLIC "-//W3C//DTD SVG 1.1//EN" "http://www.w3.org/Graphics/SVG/1.1/DTD/svg11.dtd">
<svg version="1.1" id="Capa_1" xmlns="http://www.w3.org/2000/svg" xmlns:xlink="http://www.w3.org/1999/xlink" x="0px" y="0px"
	 width="80px" height="38px" viewBox="0 0 80 38" enable-background="new 0 0 80 38" xml:space="preserve">
<rect y="0" fill="#E33E45" width="80" height="38"/>
<g>
	<path fill="#FFFFFF" d="M46.67,12.33c-0.318-0.318-0.834-0.318-1.154,0L40,17.847l-5.514-5.518c-0.319-0.318-0.837-0.318-1.155,0
		c-0.318,0.32-0.318,0.836,0,1.156l5.514,5.516l-5.514,5.516c-0.32,0.316-0.32,0.836,0,1.154c0.158,0.16,0.366,0.238,0.575,0.238
		s0.419-0.078,0.576-0.238L40,20.158l5.516,5.514c0.16,0.16,0.367,0.238,0.576,0.238s0.42-0.078,0.578-0.238
		c0.32-0.318,0.32-0.838,0-1.154l-5.516-5.516l5.516-5.516C46.99,13.166,46.99,12.65,46.67,12.33z"/>
</g>
</svg>
