<?xml version="1.0" encoding="utf-8"?>
<!-- Generator: Adobe Illustrator 15.1.0, SVG Export Plug-In . SVG Version: 6.00 Build 0)  -->
<!DOCTYPE svg PUBLIC "-//W3C//DTD SVG 1.1//EN" "http://www.w3.org/Graphics/SVG/1.1/DTD/svg11.dtd">
<svg version="1.1" id="Capa_1" xmlns="http://www.w3.org/2000/svg" xmlns:xlink="http://www.w3.org/1999/xlink" x="0px" y="0px"
	 width="30px" height="30px" viewBox="0 0 30 30" enable-background="new 0 0 30 30" xml:space="preserve">
<path fill="#57ABDD" d="M15,0C6.714,0,0,6.713,0,15c0,8.285,6.715,15,15,15c8.284,0,15-6.715,15-15C30,6.713,23.283,0,15,0z
	 M20.965,11.94c0.006,0.133,0.01,0.266,0.01,0.397c0,4.067-3.098,8.756-8.758,8.756c-1.74,0-3.355-0.508-4.719-1.383
	c0.242,0.031,0.487,0.043,0.736,0.043c1.442,0,2.767-0.49,3.819-1.316c-1.346-0.025-2.482-0.916-2.873-2.139
	c0.188,0.037,0.379,0.057,0.578,0.057c0.28,0,0.552-0.039,0.811-0.107c-1.407-0.283-2.469-1.527-2.469-3.018
	c0-0.012,0-0.027,0-0.039c0.416,0.232,0.891,0.369,1.395,0.383c-0.826-0.549-1.369-1.494-1.369-2.56
	c0-0.564,0.152-1.094,0.417-1.548c1.518,1.863,3.785,3.089,6.343,3.215c-0.053-0.223-0.079-0.458-0.079-0.7
	c0-1.7,1.378-3.075,3.078-3.075c0.885,0,1.684,0.373,2.244,0.97c0.701-0.138,1.361-0.394,1.957-0.747
	c-0.23,0.719-0.719,1.321-1.354,1.703c0.625-0.074,1.215-0.239,1.768-0.484C22.088,10.963,21.564,11.505,20.965,11.94z"/>
</svg>
