<?xml version="1.0" encoding="utf-8"?>
<!-- Generator: Adobe Illustrator 15.1.0, SVG Export Plug-In . SVG Version: 6.00 Build 0)  -->
<!DOCTYPE svg PUBLIC "-//W3C//DTD SVG 1.1//EN" "http://www.w3.org/Graphics/SVG/1.1/DTD/svg11.dtd">
<svg version="1.1" id="Capa_1" xmlns="http://www.w3.org/2000/svg" xmlns:xlink="http://www.w3.org/1999/xlink" x="0px" y="0px"
	 width="30px" height="30px" viewBox="0 0 30 30" enable-background="new 0 0 30 30" xml:space="preserve">
<path fill-rule="evenodd" clip-rule="evenodd" fill="#F0AB24" d="M14.999,0C6.715,0,0,6.886,0,15.382
	c0,6.793,4.296,12.557,10.258,14.593c0.75,0.14,1.023-0.336,1.023-0.741c0-0.366-0.014-1.334-0.02-2.618
	c-4.173,0.932-5.054-2.06-5.054-2.06c-0.683-1.778-1.664-2.25-1.664-2.25C3.182,21.35,4.646,21.37,4.646,21.37
	c1.505,0.108,2.297,1.586,2.297,1.586c1.338,2.35,3.51,1.67,4.364,1.276c0.137-0.994,0.526-1.671,0.955-2.056
	c-3.333-0.391-6.835-1.708-6.835-7.603c0-1.68,0.586-3.05,1.545-4.126C6.818,10.057,6.304,8.495,7.12,6.377
	c0,0,1.259-0.414,4.125,1.576c1.196-0.339,2.48-0.513,3.756-0.518c1.273,0.005,2.558,0.179,3.755,0.518
	c2.863-1.99,4.121-1.576,4.121-1.576c0.818,2.118,0.304,3.68,0.148,4.071c0.963,1.076,1.541,2.446,1.541,4.126
	c0,5.909-3.506,7.21-6.848,7.588c0.539,0.478,1.018,1.415,1.018,2.851c0,2.057-0.019,3.717-0.019,4.221
	c0,0.412,0.271,0.888,1.034,0.738C25.705,27.934,30,22.173,30,15.382C30,6.886,23.283,0,14.999,0z"/>
</svg>
