<?xml version="1.0" encoding="utf-8"?>
<!-- Generator: Adobe Illustrator 15.1.0, SVG Export Plug-In . SVG Version: 6.00 Build 0)  -->
<!DOCTYPE svg PUBLIC "-//W3C//DTD SVG 1.1//EN" "http://www.w3.org/Graphics/SVG/1.1/DTD/svg11.dtd">
<svg version="1.1" id="Capa_1" xmlns="http://www.w3.org/2000/svg" xmlns:xlink="http://www.w3.org/1999/xlink" x="0px" y="0px"
	 width="30px" height="30px" viewBox="0 0 30 30" enable-background="new 0 0 30 30" xml:space="preserve">
<path fill="#345D9C" d="M14.999,0C6.715,0,0,6.714,0,15.001C0,23.285,6.715,30,14.999,30C23.282,30,30,23.285,30,15.001
	C30,6.714,23.282,0,14.999,0z M18.214,15.005h-2.103c0,3.358,0,7.495,0,7.495h-3.116c0,0,0-4.096,0-7.495h-1.48v-2.647h1.48v-1.714
	c0-1.227,0.582-3.144,3.143-3.144l2.309,0.008v2.571c0,0-1.402,0-1.674,0c-0.274,0-0.661,0.135-0.661,0.722v1.557h2.376
	L18.214,15.005z"/>
</svg>
