<?xml version="1.0" encoding="utf-8"?>
<!-- Generator: Adobe Illustrator 15.1.0, SVG Export Plug-In . SVG Version: 6.00 Build 0)  -->
<!DOCTYPE svg PUBLIC "-//W3C//DTD SVG 1.1//EN" "http://www.w3.org/Graphics/SVG/1.1/DTD/svg11.dtd">
<svg version="1.1" id="Capa_1" xmlns="http://www.w3.org/2000/svg" xmlns:xlink="http://www.w3.org/1999/xlink" x="0px" y="0px"
	 width="30px" height="30px" viewBox="0 0 30 30" enable-background="new 0 0 30 30" xml:space="preserve">
<path fill="#18D99C" d="M15,0C6.715,0,0,6.714,0,15c0,8.285,6.715,15,15,15c8.284,0,15-6.715,15-15C30,6.714,23.283,0,15,0z
	 M19.84,11.721c0.359,0,0.65,0.288,0.65,0.647s-0.291,0.65-0.65,0.65s-0.648-0.291-0.648-0.65S19.48,11.721,19.84,11.721z
	 M19.195,19.838c-0.045,0.084-0.115,0.156-0.213,0.211c-0.533,0.359-1.107,0.637-1.725,0.832s-1.265,0.295-1.947,0.295
	c-0.603,0-1.18-0.078-1.733-0.23c-0.115-0.033-0.229-0.068-0.342-0.107l-1.132,0.846c-0.447,0.334-0.809,0.15-0.809-0.404v-1.488
	c-0.206-0.162-0.402-0.334-0.588-0.52c-0.395-0.396-0.734-0.832-1.018-1.313c-0.285-0.48-0.502-0.996-0.656-1.551
	c-0.153-0.554-0.23-1.132-0.23-1.734s0.077-1.18,0.23-1.734c0.154-0.554,0.372-1.073,0.656-1.559
	c0.284-0.486,0.623-0.927,1.018-1.324c0.395-0.397,0.833-0.738,1.316-1.019c0.482-0.281,1-0.498,1.555-0.656
	c0.554-0.156,1.131-0.233,1.733-0.233c0.682,0,1.326,0.094,1.929,0.284c0.605,0.19,1.174,0.464,1.709,0.823
	c0.096,0.056,0.168,0.131,0.213,0.222c0.045,0.09,0.037,0.198-0.025,0.323l-1.439,2.045c-0.063,0.096-0.131,0.151-0.201,0.166
	c-0.07,0.014-0.158-0.011-0.26-0.072c-0.277-0.211-0.586-0.373-0.92-0.485c-0.335-0.114-0.69-0.171-1.065-0.171
	c-0.466,0-0.895,0.088-1.286,0.264c-0.393,0.177-0.731,0.418-1.015,0.725s-0.505,0.664-0.664,1.073
	c-0.159,0.41-0.238,0.846-0.238,1.311c0,0.467,0.079,0.902,0.238,1.309c0.159,0.406,0.381,0.761,0.664,1.064
	c0.283,0.305,0.622,0.545,1.015,0.721c0.392,0.176,0.82,0.264,1.286,0.264c0.375,0,0.733-0.059,1.073-0.174
	c0.342-0.117,0.65-0.279,0.93-0.49c0.102-0.063,0.188-0.088,0.256-0.078c0.068,0.014,0.137,0.063,0.203,0.154l1.457,2.096
	C19.232,19.646,19.242,19.752,19.195,19.838z M19.84,17.604c-0.359,0-0.648-0.291-0.648-0.65s0.289-0.65,0.648-0.65
	s0.65,0.291,0.65,0.65S20.199,17.604,19.84,17.604z M20.547,15.311c-0.359,0-0.648-0.293-0.648-0.65s0.289-0.649,0.648-0.649
	c0.357,0,0.65,0.292,0.65,0.649S20.904,15.311,20.547,15.311z"/>
</svg>
