<?xml version="1.0" encoding="utf-8"?>
<!-- Generator: Adobe Illustrator 15.1.0, SVG Export Plug-In . SVG Version: 6.00 Build 0)  -->
<!DOCTYPE svg PUBLIC "-//W3C//DTD SVG 1.1//EN" "http://www.w3.org/Graphics/SVG/1.1/DTD/svg11.dtd">
<svg version="1.1" id="Capa_1" xmlns="http://www.w3.org/2000/svg" xmlns:xlink="http://www.w3.org/1999/xlink" x="0px" y="0px"
	 width="43px" height="43px" viewBox="0 0 43 43" enable-background="new 0 0 43 43" xml:space="preserve">
<path fill="#18D99C" d="M32.889,22.581l-5.424-10.454c-0.132-0.254-0.396-0.416-0.683-0.416H16.318
	c-0.287,0-0.551,0.162-0.683,0.416l-5.056,9.744c-0.124,0.202-0.24,0.395-0.32,0.62l-0.047,0.09c-0.041,0.076-0.008,0.16-0.022,0.24
	c-0.066,0.267-0.164,0.524-0.164,0.811v4.978c0,1.907,1.555,3.458,3.462,3.458h16.025c1.908,0,3.459-1.551,3.459-3.458v-4.978
	c0-0.146-0.064-0.269-0.082-0.408C32.977,23.02,32.998,22.792,32.889,22.581z M16.784,13.25h9.532l3.635,7.013
	c-0.15-0.021-0.282-0.09-0.438-0.09h-3.558c-0.405,0-0.741,0.315-0.769,0.722c-0.12,1.953-1.742,3.483-3.688,3.483
	c-1.942,0-3.565-1.53-3.688-3.483c-0.025-0.406-0.362-0.722-0.77-0.722h-3.552c-0.117,0-0.216,0.056-0.327,0.065L16.784,13.25z
	 M31.436,28.609c0,1.059-0.862,1.921-1.922,1.921H13.489c-1.06,0-1.922-0.862-1.922-1.921v-4.978c0-0.185,0.056-0.349,0.105-0.519
	l0.356-0.688c0.352-0.427,0.865-0.715,1.461-0.715h2.881c0.488,2.409,2.618,4.206,5.129,4.206s4.641-1.797,5.131-4.206h2.884
	c1.06,0,1.922,0.86,1.922,1.921V28.609z"/>
</svg>
