<?xml version="1.0" encoding="utf-8"?>
<!-- Generator: Adobe Illustrator 15.1.0, SVG Export Plug-In . SVG Version: 6.00 Build 0)  -->
<!DOCTYPE svg PUBLIC "-//W3C//DTD SVG 1.1//EN" "http://www.w3.org/Graphics/SVG/1.1/DTD/svg11.dtd">
<svg version="1.1" id="Capa_1" xmlns="http://www.w3.org/2000/svg" xmlns:xlink="http://www.w3.org/1999/xlink" x="0px" y="0px"
	 width="43px" height="43px" viewBox="0 0 43 43" enable-background="new 0 0 43 43" xml:space="preserve">
<g>
	<g>
		<path fill="#E33E45" d="M32.051,16.804H10.95c-0.388,0-0.702,0.315-0.702,0.702v14.772c0,0.389,0.314,0.702,0.702,0.702h4.924
			v3.516c0,0.277,0.16,0.526,0.409,0.643c0.094,0.041,0.195,0.063,0.295,0.063c0.164,0,0.327-0.057,0.458-0.17l4.726-4.051h10.29
			c0.391,0,0.703-0.313,0.703-0.702V17.506C32.754,17.119,32.441,16.804,32.051,16.804z M31.348,31.573h-9.846
			c-0.168,0-0.331,0.062-0.459,0.171l-3.762,3.227v-2.692c0-0.388-0.315-0.705-0.702-0.705h-4.924V18.21h19.693V31.573z"/>
		<path fill="#E33E45" d="M23.744,24.432c0-1.236-1.006-2.241-2.243-2.241c-1.237,0-2.244,1.005-2.244,2.241
			c0,0.97,0.621,1.789,1.482,2.103v0.361v0.491c0,0.422,0.341,0.76,0.762,0.76c0.419,0,0.76-0.338,0.76-0.76v-0.491v-0.36
			C23.123,26.221,23.744,25.401,23.744,24.432z M21.501,25.446c-0.56,0-1.014-0.455-1.014-1.015c0-0.555,0.454-1.01,1.014-1.01
			c0.559,0,1.012,0.455,1.012,1.01C22.514,24.991,22.061,25.446,21.501,25.446z"/>
	</g>
	<path fill="#E33E45" d="M21.501,5.799c-3.415,0-6.191,2.776-6.191,6.188v4.816h1.374v-4.816c0-2.652,2.161-4.813,4.817-4.813
		c2.655,0,4.815,2.16,4.815,4.813v4.816h1.375v-4.816C27.691,8.575,24.914,5.799,21.501,5.799z"/>
</g>
</svg>
