<?xml version="1.0" encoding="utf-8"?>
<!-- Generator: Adobe Illustrator 15.1.0, SVG Export Plug-In . SVG Version: 6.00 Build 0)  -->
<!DOCTYPE svg PUBLIC "-//W3C//DTD SVG 1.1//EN" "http://www.w3.org/Graphics/SVG/1.1/DTD/svg11.dtd">
<svg version="1.1" id="Capa_1" xmlns="http://www.w3.org/2000/svg" xmlns:xlink="http://www.w3.org/1999/xlink" x="0px" y="0px"
	 width="43px" height="43px" viewBox="0 0 43 43" enable-background="new 0 0 43 43" xml:space="preserve">
<g>
	<path fill="#18D99C" d="M11.141,15.36h4.851c0.487,0,0.882-0.396,0.882-0.883c0-0.487-0.395-0.882-0.882-0.882h-4.851
		c-0.487,0-0.881,0.395-0.881,0.882C10.259,14.964,10.653,15.36,11.141,15.36z"/>
	<path fill="#18D99C" d="M21.724,18.981H11.141c-0.487,0-0.881,0.396-0.881,0.882c0,0.488,0.394,0.882,0.881,0.882h10.583
		c0.487,0,0.882-0.394,0.882-0.882C22.605,19.377,22.211,18.981,21.724,18.981z"/>
	<path fill="#18D99C" d="M21.724,23.487H11.141c-0.487,0-0.881,0.394-0.881,0.881s0.394,0.883,0.881,0.883h10.583
		c0.487,0,0.882-0.396,0.882-0.883S22.211,23.487,21.724,23.487z"/>
	<path fill="#18D99C" d="M21.724,27.991H11.141c-0.487,0-0.881,0.395-0.881,0.881c0,0.487,0.394,0.883,0.881,0.883h10.583
		c0.487,0,0.882-0.396,0.882-0.883C22.605,28.386,22.211,27.991,21.724,27.991z"/>
	<path fill="#18D99C" d="M21.316,8.427H7.526c-1.509-0.021-2.265,0.736-2.265,2.266v22.386c0,1.513,0.756,2.266,2.265,2.266h17.813
		c1.51,0,2.265-0.753,2.265-2.266V14.936L21.316,8.427z M24.099,33.474H8.767c-1.303,0-1.954-0.649-1.954-1.952V12.25
		c0-1.319,0.65-1.969,1.954-1.952h11.874v3.467c-0.021,1.423,0.691,2.139,2.139,2.139h3.27v15.618
		C26.049,32.824,25.398,33.474,24.099,33.474z"/>
	<path fill="#18D99C" d="M37.346,8.813c-0.25-0.25-0.588-0.391-0.941-0.388l-3.387,0.001c-0.355,0-0.691,0.138-0.943,0.39
		c-0.25,0.251-0.392,0.589-0.389,0.942L31.684,28.72c0.002,0.459,0.132,1.117,0.307,1.541l1.848,4.43
		c0.199,0.482,0.528,0.613,0.709,0.648c0.273,0.053,0.548-0.033,0.758-0.242c0.109-0.111,0.2-0.254,0.27-0.428l1.881-4.888
		c0.164-0.424,0.283-1.081,0.283-1.532V9.759C37.738,9.403,37.602,9.069,37.346,8.813z M34.687,33.255l-1.466-3.508
		c-0.017-0.047-0.035-0.104-0.055-0.165l2.934,0.002L34.687,33.255z M36.399,28.247l-3.382,0.002V12.591h3.384L36.399,28.247z
		 M33.016,11.257l0.002-1.499h3.382l0.003,1.5L33.016,11.257z"/>
</g>
</svg>
