<?xml version="1.0" encoding="utf-8"?>
<!-- Generator: Adobe Illustrator 15.1.0, SVG Export Plug-In . SVG Version: 6.00 Build 0)  -->
<!DOCTYPE svg PUBLIC "-//W3C//DTD SVG 1.1//EN" "http://www.w3.org/Graphics/SVG/1.1/DTD/svg11.dtd">
<svg version="1.1" id="Capa_1" xmlns="http://www.w3.org/2000/svg" xmlns:xlink="http://www.w3.org/1999/xlink" x="0px" y="0px"
	 width="43px" height="43px" viewBox="0 0 43 43" enable-background="new 0 0 43 43" xml:space="preserve">
<g>
	<path fill="#18D99C" d="M23.298,11.834c-2.158,2.158-2.342,5.548-0.564,7.925L12.256,30.236c-0.34,0.339-0.34,0.888,0,1.227
		c0.339,0.339,0.889,0.339,1.227,0l0.614-0.613l1.839,1.841c0.34,0.339,0.889,0.338,1.229-0.001
		c0.338-0.339,0.338-0.888-0.002-1.227l-1.839-1.84l1.227-1.227l0.612,0.613c0.34,0.339,0.889,0.339,1.229-0.001
		c0.337-0.338,0.337-0.887,0-1.226l-0.614-0.613l6.183-6.184c2.377,1.777,5.768,1.594,7.927-0.564c2.368-2.369,2.368-6.221,0-8.588
		C29.519,9.466,25.665,9.465,23.298,11.834z M30.659,19.195c-1.691,1.69-4.443,1.69-6.135,0c-1.691-1.692-1.689-4.443,0.001-6.135
		c1.691-1.691,4.442-1.691,6.134,0S32.351,17.503,30.659,19.195z"/>
</g>
</svg>
