<?xml version="1.0" encoding="utf-8"?>
<!-- Generator: Adobe Illustrator 15.1.0, SVG Export Plug-In . SVG Version: 6.00 Build 0)  -->
<!DOCTYPE svg PUBLIC "-//W3C//DTD SVG 1.1//EN" "http://www.w3.org/Graphics/SVG/1.1/DTD/svg11.dtd">
<svg version="1.1" id="Capa_1" xmlns="http://www.w3.org/2000/svg" xmlns:xlink="http://www.w3.org/1999/xlink" x="0px" y="0px"
	 width="43px" height="43px" viewBox="0 0 43 43" enable-background="new 0 0 43 43" xml:space="preserve">
<g>
	<path fill="#18D99C" d="M21.498,23.042c4.066,0,7.375-3.308,7.375-7.377c0-4.061-3.309-7.368-7.375-7.368s-7.371,3.308-7.371,7.368
		C14.127,19.734,17.432,23.042,21.498,23.042z M21.498,10.077c3.086,0,5.594,2.507,5.594,5.588c0,3.087-2.508,5.596-5.594,5.596
		c-3.08,0-5.59-2.509-5.59-5.596C15.908,12.584,18.418,10.077,21.498,10.077z"/>
	<path fill="#18D99C" d="M21.498,25.786c-7.566,0-13.495,3.523-13.495,8.026c0,0.492,0.397,0.89,0.889,0.89
		c0.491,0,0.891-0.397,0.891-0.89c0-3.387,5.361-6.245,11.715-6.245c6.352,0,11.719,2.858,11.719,6.245
		c0,0.492,0.395,0.89,0.89,0.89c0.49,0,0.89-0.397,0.89-0.89C34.996,29.31,29.064,25.786,21.498,25.786z"/>
</g>
</svg>
