<?xml version="1.0" encoding="utf-8"?>
<!-- Generator: Adobe Illustrator 15.1.0, SVG Export Plug-In . SVG Version: 6.00 Build 0)  -->
<!DOCTYPE svg PUBLIC "-//W3C//DTD SVG 1.1//EN" "http://www.w3.org/Graphics/SVG/1.1/DTD/svg11.dtd">
<svg version="1.1" id="Capa_1" xmlns="http://www.w3.org/2000/svg" xmlns:xlink="http://www.w3.org/1999/xlink" x="0px" y="0px"
	 width="43px" height="43px" viewBox="0 0 43 43" enable-background="new 0 0 43 43" xml:space="preserve">
<g>
	<g>
		<path fill="#18D99C" d="M32.051,16.789H10.949c-0.387,0-0.703,0.314-0.703,0.703v14.771c0,0.388,0.315,0.702,0.703,0.702h4.925
			v3.517c0,0.275,0.16,0.526,0.408,0.642c0.094,0.041,0.195,0.063,0.295,0.063c0.164,0,0.328-0.059,0.458-0.169l4.725-4.053h10.292
			c0.389,0,0.703-0.314,0.703-0.702V17.492C32.754,17.104,32.439,16.789,32.051,16.789z M31.346,31.558H21.5
			c-0.168,0-0.33,0.063-0.457,0.172l-3.764,3.225v-2.691c0-0.389-0.314-0.705-0.703-0.705h-4.923V18.196h19.691V31.558z"/>
		<path fill="#18D99C" d="M23.744,24.417c0-1.238-1.008-2.241-2.244-2.241c-1.236,0-2.243,1.003-2.243,2.241
			c0,0.968,0.621,1.788,1.481,2.102v0.361v0.493c0,0.421,0.342,0.758,0.762,0.758s0.759-0.337,0.759-0.758V26.88v-0.359
			C23.121,26.205,23.744,25.385,23.744,24.417z M21.5,25.43c-0.56,0-1.014-0.454-1.014-1.013c0-0.556,0.454-1.01,1.014-1.01
			c0.56,0,1.013,0.454,1.013,1.01C22.514,24.976,22.061,25.43,21.5,25.43z"/>
	</g>
	<path fill="#18D99C" d="M15.324,11.988c0-3.405,2.769-6.175,6.171-6.175c3.406,0,6.173,2.77,6.173,6.175v1.397
		c-0.01,0.369-0.311,0.665-0.682,0.665c-0.379,0-0.686-0.307-0.686-0.686l-0.004-1.377c0-2.648-2.154-4.802-4.802-4.802
		c-2.646,0-4.799,2.153-4.799,4.802v4.801h-1.372V11.988z"/>
</g>
</svg>
