<?xml version="1.0" encoding="utf-8"?>
<!-- Generator: Adobe Illustrator 15.1.0, SVG Export Plug-In . SVG Version: 6.00 Build 0)  -->
<!DOCTYPE svg PUBLIC "-//W3C//DTD SVG 1.1//EN" "http://www.w3.org/Graphics/SVG/1.1/DTD/svg11.dtd">
<svg version="1.1" id="Capa_1" xmlns="http://www.w3.org/2000/svg" xmlns:xlink="http://www.w3.org/1999/xlink" x="0px" y="0px"
	 width="21px" height="21px" viewBox="0 0 21 21" enable-background="new 0 0 21 21" xml:space="preserve">
<g>
	<circle fill="#E33E45" cx="10.5" cy="10.5" r="10.5"/>
	<g>
		<path fill="#FFFFFF" d="M14.779,6.22c-0.205-0.203-0.537-0.203-0.742,0L10.5,9.759L6.963,6.22c-0.204-0.203-0.539-0.203-0.741,0
			c-0.204,0.205-0.204,0.535,0,0.742L9.76,10.5l-3.541,3.54c-0.203,0.205-0.203,0.537,0,0.742c0.104,0.102,0.238,0.152,0.372,0.152
			c0.133,0,0.269-0.051,0.37-0.152l3.539-3.539l3.537,3.539c0.104,0.102,0.236,0.152,0.373,0.152c0.133,0,0.266-0.051,0.369-0.152
			c0.203-0.205,0.203-0.537,0-0.742L11.24,10.5l3.539-3.537C14.982,6.755,14.982,6.425,14.779,6.22z"/>
	</g>
</g>
</svg>
