<?xml version="1.0" encoding="utf-8"?>
<!-- Generator: Adobe Illustrator 15.1.0, SVG Export Plug-In . SVG Version: 6.00 Build 0)  -->
<!DOCTYPE svg PUBLIC "-//W3C//DTD SVG 1.1//EN" "http://www.w3.org/Graphics/SVG/1.1/DTD/svg11.dtd">
<svg version="1.1" id="Capa_1" xmlns="http://www.w3.org/2000/svg" xmlns:xlink="http://www.w3.org/1999/xlink" x="0px" y="0px"
	 width="43px" height="43px" viewBox="0 0 43 43" enable-background="new 0 0 43 43" xml:space="preserve">
<g>
	<path fill="#FFD65E" d="M31.244,17.626l-5.641-0.817l-2.525-5.11c-0.296-0.604-0.904-0.982-1.576-0.982
		c-0.67,0-1.283,0.381-1.58,0.982l-2.521,5.11l-5.637,0.817c-0.664,0.095-1.218,0.563-1.429,1.195
		c-0.205,0.64-0.026,1.34,0.45,1.804l4.081,3.981l-0.965,5.62c-0.11,0.659,0.158,1.327,0.702,1.721
		c0.31,0.226,0.672,0.338,1.034,0.338c0.281,0,0.563-0.07,0.817-0.206l5.048-2.646l5.045,2.646c0.255,0.136,0.541,0.206,0.815,0.206
		c0.369,0,0.729-0.112,1.036-0.338c0.545-0.394,0.82-1.062,0.705-1.721l-0.968-5.62l4.085-3.981c0.479-0.464,0.65-1.164,0.444-1.804
		C32.46,18.188,31.906,17.721,31.244,17.626z M26.246,23.991l1.116,6.532l-5.86-3.083l-5.865,3.083l1.122-6.532l-4.749-4.624
		l6.562-0.951l2.931-5.941l2.93,5.941l6.563,0.951L26.246,23.991z"/>
</g>
</svg>
